<?xml version="1.0" encoding="UTF-8"?>
<svg width="800px" height="800px" viewBox="0 0 24 24" version="1.1" xmlns="http://www.w3.org/2000/svg" xmlns:xlink="http://www.w3.org/1999/xlink">
    <g stroke="none" stroke-width="1" fill="none" fill-rule="evenodd">
        <g fill="#10b981" fill-rule="nonzero">
            <path d="M17.5,7 C16.12,7 15,8.12 15,9.5 C15,10.88 16.12,12 17.5,12 C18.88,12 20,10.88 20,9.5 C20,8.12 18.88,7 17.5,7 Z M10.5,7.5 L10.5,16.5 C10.5,18.71 8.71,20.5 6.5,20.5 C4.29,20.5 2.5,18.71 2.5,16.5 C2.5,14.29 4.29,12.5 6.5,12.5 L9.5,12.5 L9.5,7.5 L10.5,7.5 Z M10.5,6.5 L9.5,6.5 C8.95,6.5 8.5,6.95 8.5,7.5 L8.5,11.5 L6.5,11.5 C3.74,11.5 1.5,13.74 1.5,16.5 C1.5,19.26 3.74,21.5 6.5,21.5 C9.26,21.5 11.5,19.26 11.5,16.5 L11.5,7.5 C11.5,6.95 11.05,6.5 10.5,6.5 Z M21.5,8 L21.5,7 L19.5,7 L19.5,8 L18.5,8 L18.5,10 L19.5,10 L19.5,11 L21.5,11 L21.5,10 L22.5,10 L22.5,8 L21.5,8 Z M14.5,17 C13.12,17 12,18.12 12,19.5 C12,20.88 13.12,22 14.5,22 C15.88,22 17,20.88 17,19.5 C17,18.12 15.88,17 14.5,17 Z M17.5,2 C16.12,2 15,3.12 15,4.5 C15,5.88 16.12,7 17.5,7 C18.88,7 20,5.88 20,4.5 C20,3.12 18.88,2 17.5,2 Z" id="gaming-controller"></path>
        </g>
    </g>
</svg>
