<?xml version="1.0" encoding="UTF-8"?>
<svg width="16" height="16" viewBox="0 0 16 16" xmlns="http://www.w3.org/2000/svg">
    <rect width="16" height="16" rx="2" fill="#6d28d9"/>
    <g transform="translate(1, 1) scale(0.6)">
        <g fill="#f59e0b">
            <circle cx="12" cy="5" r="1.5"/>
            <circle cx="12" cy="9" r="1.5"/>
            <circle cx="4" cy="9" r="1.5"/>
            <rect x="2" y="6" width="3" height="1" rx="0.5"/>
            <rect x="3" y="5" width="1" height="3" rx="0.5"/>
            <path d="M6,3 L10,3 C11.5,3 13,4.5 13,6 L13,10 C13,11.5 11.5,13 10,13 L6,13 C4.5,13 3,11.5 3,10 L3,6 C3,4.5 4.5,3 6,3 Z" fill="none" stroke="#f59e0b" stroke-width="0.8"/>
        </g>
    </g>
</svg>
