<?xml version="1.0" encoding="UTF-8"?>
<svg width="32" height="32" viewBox="0 0 24 24" version="1.1" xmlns="http://www.w3.org/2000/svg">
    <rect width="24" height="24" rx="4" fill="#6d28d9"/>
    <g transform="translate(2, 2)">
        <g fill="#f59e0b" fill-rule="nonzero">
            <path d="M15.5,5 C14.12,5 13,6.12 13,7.5 C13,8.88 14.12,10 15.5,10 C16.88,10 18,8.88 18,7.5 C18,6.12 16.88,5 15.5,5 Z M8.5,5.5 L8.5,14.5 C8.5,16.71 6.71,18.5 4.5,18.5 C2.29,18.5 0.5,16.71 0.5,14.5 C0.5,12.29 2.29,10.5 4.5,10.5 L7.5,10.5 L7.5,5.5 L8.5,5.5 Z M8.5,4.5 L7.5,4.5 C6.95,4.5 6.5,4.95 6.5,5.5 L6.5,9.5 L4.5,9.5 C1.74,9.5 -0.5,11.74 -0.5,14.5 C-0.5,17.26 1.74,19.5 4.5,19.5 C7.26,19.5 9.5,17.26 9.5,14.5 L9.5,5.5 C9.5,4.95 9.05,4.5 8.5,4.5 Z M19.5,6 L19.5,5 L17.5,5 L17.5,6 L16.5,6 L16.5,8 L17.5,8 L17.5,9 L19.5,9 L19.5,8 L20.5,8 L20.5,6 L19.5,6 Z M12.5,15 C11.12,15 10,16.12 10,17.5 C10,18.88 11.12,20 12.5,20 C13.88,20 15,18.88 15,17.5 C15,16.12 13.88,15 12.5,15 Z M15.5,0 C14.12,0 13,1.12 13,2.5 C13,3.88 14.12,5 15.5,5 C16.88,5 18,3.88 18,2.5 C18,1.12 16.88,0 15.5,0 Z" id="gaming-controller"></path>
        </g>
    </g>
</svg>
