<?xml version="1.0" encoding="UTF-8"?>
<svg width="32" height="32" viewBox="0 0 32 32" xmlns="http://www.w3.org/2000/svg">
    <rect width="32" height="32" rx="4" fill="#6d28d9"/>
    <g transform="translate(2, 2) scale(1.2)">
        <g fill="#f59e0b">
            <circle cx="19" cy="7" r="2"/>
            <circle cx="19" cy="13" r="2"/>
            <circle cx="6" cy="13" r="2"/>
            <rect x="3" y="9" width="5" height="1.5" rx="0.75"/>
            <rect x="5" y="7" width="1.5" height="5" rx="0.75"/>
            <path d="M9,4 L15,4 C17.5,4 20,6.5 20,9 L20,15 C20,17.5 17.5,20 15,20 L9,20 C6.5,20 4,17.5 4,15 L4,9 C4,6.5 6.5,4 9,4 Z" fill="none" stroke="#f59e0b" stroke-width="1.2"/>
        </g>
    </g>
</svg>
